<svg width="35" height="43" viewBox="0 0 35 43" fill="none" xmlns="http://www.w3.org/2000/svg">
<path d="M6.62451 27.786C4.15726 24.6856 2.91272 21.2358 2.91272 17.4149C2.91272 13.3756 4.33193 9.92578 7.17036 7.08735C9.96512 4.31443 13.3494 2.89521 17.3014 2.82971C21.2533 2.87338 24.6376 4.29259 27.4542 7.08735C30.2926 9.92578 31.7118 13.3756 31.7118 17.4149C31.7118 21.2358 30.4673 24.6856 27.9782 27.786L22.4324 34.4236C22.4324 34.4236 21.5808 34.6856 21.1223 34.2053C20.9258 34.0087 13.1966 24.0961 13.1966 24.0961" stroke="#FD961B" stroke-width="5" stroke-miterlimit="3" stroke-linecap="square"/>
<path d="M12.2795 22.9825C11.8646 22.5459 11.5808 22.0655 11.4061 21.5415C11.2315 21.0175 11.166 20.4498 11.2315 19.8603C11.297 18.6594 11.7773 17.6769 12.6943 16.8908C13.5895 16.1266 14.6157 15.821 15.7729 15.9301C16.4716 15.9738 17.083 16.1485 17.6288 16.5197C18.0219 16.738 18.3712 17.0218 18.6769 17.3712L23.3057 22.7205" stroke="#FD961B" stroke-width="5" stroke-miterlimit="3" stroke-linecap="round" stroke-linejoin="round"/>
<path d="M21.7337 35.297L12.2795 22.9825M17.3232 39.9913L6.62451 27.786" stroke="#FD961B" stroke-width="5" stroke-miterlimit="3" stroke-linecap="round"/>
</svg>
