<svg width="32" height="32" viewBox="0 0 32 32" fill="none" xmlns="http://www.w3.org/2000/svg">
<g id="Mingcute Icons" clip-path="url(#clip0_333_9935)">
<g id="&#233;&#161;&#181;&#233;&#157;&#162;-1">
<g id="System">
<g id="add_circle_line">
<path id="&#229;&#189;&#162;&#231;&#138;&#182;&#231;&#187;&#147;&#229;&#144;&#136;" d="M16 2.66667C23.3637 2.66667 29.3333 8.6362 29.3333 16C29.3333 23.3637 23.3637 29.3333 16 29.3333C8.63616 29.3333 2.66663 23.3637 2.66663 16C2.66663 8.6362 8.63616 2.66667 16 2.66667ZM16 5.33334C10.1089 5.33334 5.33329 10.109 5.33329 16C5.33329 21.8911 10.1089 26.6667 16 26.6667C21.891 26.6667 26.6666 21.8911 26.6666 16C26.6666 10.109 21.891 5.33334 16 5.33334ZM16 9.33334C16.7364 9.33334 17.3333 9.93028 17.3333 10.6667V14.6667H21.3333C22.0697 14.6667 22.6666 15.2636 22.6666 16C22.6666 16.7364 22.0697 17.3333 21.3333 17.3333H17.3333V21.3333C17.3333 22.0697 16.7364 22.6667 16 22.6667C15.2636 22.6667 14.6666 22.0697 14.6666 21.3333V17.3333H10.6666C9.93025 17.3333 9.33329 16.7364 9.33329 16C9.33329 15.2636 9.93025 14.6667 10.6666 14.6667H14.6666V10.6667C14.6666 9.93028 15.2636 9.33334 16 9.33334Z" fill="#CDCFCC"/>
</g>
</g>
</g>
</g>
<defs>
<clipPath id="clip0_333_9935">
<rect width="32" height="32" fill="white"/>
</clipPath>
</defs>
</svg>
