<svg width="16" height="16" viewBox="0 0 16 16" fill="none" xmlns="http://www.w3.org/2000/svg">
<g id="Mingcute Icons" clip-path="url(#clip0_78_8836)">
<g id="&#233;&#161;&#181;&#233;&#157;&#162;-1">
<g id="Media">
<g id="camera_2_line">
<path id="&#229;&#189;&#162;&#231;&#138;&#182;" fill-rule="evenodd" clip-rule="evenodd" d="M9.86161 2C10.0937 2 10.3174 2.08067 10.4954 2.22647L10.5687 2.29289L11.6091 3.33333H13.333C14.0359 3.33333 14.6118 3.87725 14.6627 4.56716L14.6663 4.66667V12.6667C14.6663 13.3696 14.1224 13.9454 13.4325 13.9963L13.333 14H2.66634C1.96343 14 1.38756 13.4561 1.33666 12.7662L1.33301 12.6667V4.66667C1.33301 3.96376 1.87693 3.38789 2.56683 3.33699L2.66634 3.33333H4.3902L5.43064 2.29289C5.59473 2.1288 5.80998 2.02762 6.03891 2.00489L6.13775 2H9.86161ZM9.72354 3.33333H6.27581L5.23537 4.37377C5.07128 4.53786 4.85603 4.63904 4.62711 4.66177L4.52827 4.66667H2.66634V12.6667H13.333V4.66667H11.4711C11.239 4.66667 11.0153 4.58601 10.8373 4.4402L10.7639 4.37377L9.72354 3.33333ZM7.99967 5C9.84061 5 11.333 6.49239 11.333 8.33333C11.333 10.1743 9.84061 11.6667 7.99967 11.6667C6.15873 11.6667 4.66634 10.1743 4.66634 8.33333C4.66634 6.49239 6.15873 5 7.99967 5ZM7.99967 6.33333C6.89507 6.33333 5.99967 7.22873 5.99967 8.33333C5.99967 9.43793 6.89507 10.3333 7.99967 10.3333C9.10427 10.3333 9.99967 9.43793 9.99967 8.33333C9.99967 7.22873 9.10427 6.33333 7.99967 6.33333Z" fill="white"/>
</g>
</g>
</g>
</g>
<defs>
<clipPath id="clip0_78_8836">
<rect width="16" height="16" fill="white"/>
</clipPath>
</defs>
</svg>
