<svg width="40" height="40" viewBox="0 0 40 40" fill="none" xmlns="http://www.w3.org/2000/svg">
<g id="Mingcute Icons" clip-path="url(#clip0_60_5944)">
<g id="&#233;&#161;&#181;&#233;&#157;&#162;-1">
<g id="System">
<g id="close_line">
<path id="&#232;&#183;&#175;&#229;&#190;&#132;" fill-rule="evenodd" clip-rule="evenodd" d="M19.9999 22.3573L29.4279 31.7855C30.0787 32.4363 31.1341 32.4363 31.7849 31.7855C32.4357 31.1345 32.4357 30.0793 31.7849 29.4283L22.3569 20.0003L31.7849 10.5723C32.4357 9.92138 32.4357 8.8661 31.7849 8.21523C31.1341 7.56435 30.0787 7.56435 29.4279 8.21523L19.9999 17.6433L10.5717 8.2152C9.92086 7.56433 8.86558 7.56433 8.21471 8.2152C7.56385 8.86608 7.56385 9.92135 8.21471 10.5722L17.6427 20.0003L8.21471 29.4285C7.56385 30.0793 7.56385 31.1345 8.21471 31.7855C8.86558 32.4363 9.92086 32.4363 10.5717 31.7855L19.9999 22.3573Z" fill="white"/>
</g>
</g>
</g>
</g>
<defs>
<clipPath id="clip0_60_5944">
<rect width="40" height="40" fill="white"/>
</clipPath>
</defs>
</svg>
