<svg width="32" height="32" viewBox="0 0 32 32" fill="none" xmlns="http://www.w3.org/2000/svg">
<g id="Mingcute Icons" clip-path="url(#clip0_490_2313)">
<g id="&#233;&#161;&#181;&#233;&#157;&#162;-1">
<g id="System">
<g id="close_circle_line">
<path id="&#229;&#189;&#162;&#231;&#138;&#182;" d="M15.9993 2.66669C23.3631 2.66669 29.3327 8.63622 29.3327 16C29.3327 23.3638 23.3631 29.3334 15.9993 29.3334C8.63555 29.3334 2.66602 23.3638 2.66602 16C2.66602 8.63622 8.63555 2.66669 15.9993 2.66669ZM15.9993 5.33335C10.1083 5.33335 5.33268 10.109 5.33268 16C5.33268 21.8911 10.1083 26.6667 15.9993 26.6667C21.8904 26.6667 26.666 21.8911 26.666 16C26.666 10.109 21.8904 5.33335 15.9993 5.33335ZM13.171 11.2859L15.9993 14.1143L18.8277 11.2859C19.3484 10.7652 20.1927 10.7652 20.7133 11.2859C21.234 11.8066 21.234 12.6508 20.7133 13.1715L17.8849 15.9999L20.7135 18.8284C21.2341 19.3491 21.2341 20.1934 20.7135 20.714C20.1928 21.2347 19.3485 21.2347 18.8279 20.714L15.9993 17.8855L13.1709 20.714C12.6502 21.2347 11.806 21.2347 11.2853 20.714C10.7646 20.1934 10.7646 19.3491 11.2853 18.8284L14.1137 15.9999L11.2854 13.1715C10.7647 12.6508 10.7647 11.8066 11.2854 11.2859C11.8061 10.7652 12.6503 10.7652 13.171 11.2859Z" fill="white"/>
</g>
</g>
</g>
</g>
<defs>
<clipPath id="clip0_490_2313">
<rect width="32" height="32" fill="white"/>
</clipPath>
</defs>
</svg>
