<svg width="16" height="16" viewBox="0 0 16 16" fill="none" xmlns="http://www.w3.org/2000/svg">
<g id="Mingcute Icons" clip-path="url(#clip0_490_4094)">
<g id="&#233;&#161;&#181;&#233;&#157;&#162;-1">
<g id="Editor">
<g id="pencil_line">
<path id="&#229;&#189;&#162;&#231;&#138;&#182;" d="M10.6912 2.0098C11.441 1.25999 12.638 1.23 13.4236 1.91982L13.5196 2.0098L13.991 2.4812C14.7409 3.23101 14.7709 4.42805 14.081 5.21364L13.991 5.30963L6.51618 12.7845C6.41016 12.8905 6.28201 12.971 6.14149 13.0205L6.03393 13.0518L3.06399 13.7372C2.6088 13.8422 2.19827 13.4612 2.25061 13.0123L2.26369 12.9369L2.94906 9.96689C2.98278 9.82081 3.04879 9.68467 3.14171 9.5682L3.21635 9.48469L10.6912 2.0098ZM10.2198 4.36686L4.22675 10.3599L3.80249 12.1984L5.64097 11.7741L11.634 5.78108L10.2198 4.36686ZM12.5768 2.95261C12.3365 2.71229 11.9584 2.6938 11.6968 2.89715L11.634 2.95261L11.1626 3.42405L12.5768 4.83827L13.0482 4.36682C13.2885 4.1265 13.307 3.74834 13.1037 3.48682L13.0482 3.42401L12.5768 2.95261Z" fill="#000100"/>
</g>
</g>
</g>
</g>
<defs>
<clipPath id="clip0_490_4094">
<rect width="16" height="16" fill="white"/>
</clipPath>
</defs>
</svg>
