<svg width="24" height="25" viewBox="0 0 24 25" fill="none" xmlns="http://www.w3.org/2000/svg">
<g id="Mingcute Icons" clip-path="url(#clip0_78_9042)">
<g id="&#233;&#161;&#181;&#233;&#157;&#162;-1">
<g id="Contact">
<g id="mail_line">
<path id="&#229;&#189;&#162;&#231;&#138;&#182;" d="M20 4.33331C21.0544 4.33331 21.9182 5.14919 21.9945 6.18405L22 6.33331V18.3333C22 19.3877 21.1841 20.2515 20.1493 20.3278L20 20.3333H4C2.94564 20.3333 2.08183 19.5175 2.00549 18.4826L2 18.3333V6.33331C2 5.27895 2.81588 4.41515 3.85074 4.3388L4 4.33331H20ZM20 7.74755L13.0606 14.6869C12.4748 15.2727 11.5251 15.2727 10.9393 14.6869L4 7.74755V18.3333H20V7.74755ZM18.5858 6.33331H5.41409L12 12.9192L18.5858 6.33331Z" fill="#FD961B"/>
</g>
</g>
</g>
</g>
<defs>
<clipPath id="clip0_78_9042">
<rect width="24" height="24" fill="white" transform="translate(0 0.333313)"/>
</clipPath>
</defs>
</svg>
