<svg width="24" height="25" viewBox="0 0 24 25" fill="none" xmlns="http://www.w3.org/2000/svg">
<path d="M13.6 0.53333C12.6519 -0.177777 11.3481 -0.177777 10.4 0.53333L1.06667 7.53333C0.395187 8.03694 0 8.82732 0 9.66666V22.3333C0 23.8061 1.19391 25 2.66667 25H7.86667C8.67668 25 9.33333 24.3433 9.33333 23.5333V17C9.33333 15.5272 10.5272 14.3333 12 14.3333C13.4728 14.3333 14.6667 15.5272 14.6667 17V23.5333C14.6667 24.3433 15.3233 25 16.1333 25H21.3333C22.8061 25 24 23.8061 24 22.3333V9.66666C24 8.82732 23.6048 8.03694 22.9333 7.53333L13.6 0.53333Z" fill="white"/>
</svg>
