<svg width="16" height="16" viewBox="0 0 16 16" fill="none" xmlns="http://www.w3.org/2000/svg">
<g id="Mingcute Icons" clip-path="url(#clip0_72_7760)">
<g id="&#233;&#161;&#181;&#233;&#157;&#162;-1">
<g id="System">
<g id="information_line">
<path id="&#229;&#189;&#162;&#231;&#138;&#182;" d="M7.99967 1.33331C11.6815 1.33331 14.6663 4.31808 14.6663 7.99998C14.6663 11.6818 11.6815 14.6666 7.99967 14.6666C4.31777 14.6666 1.33301 11.6818 1.33301 7.99998C1.33301 4.31808 4.31777 1.33331 7.99967 1.33331ZM7.99967 2.66665C5.05415 2.66665 2.66634 5.05446 2.66634 7.99998C2.66634 10.9455 5.05415 13.3333 7.99967 13.3333C10.9452 13.3333 13.333 10.9455 13.333 7.99998C13.333 5.05446 10.9452 2.66665 7.99967 2.66665ZM7.99301 6.66665C8.36487 6.66665 8.66634 6.96811 8.66634 7.33998V10.7558C8.86561 10.8711 8.99967 11.0866 8.99967 11.3333C8.99967 11.7015 8.70121 12 8.33301 12H8.00634C7.63441 12 7.33301 11.6985 7.33301 11.3266V7.99998C6.96481 7.99998 6.66634 7.70151 6.66634 7.33331C6.66634 6.96511 6.96481 6.66665 7.33301 6.66665H7.99301ZM7.99967 4.66665C8.36787 4.66665 8.66634 4.96513 8.66634 5.33331C8.66634 5.7015 8.36787 5.99998 7.99967 5.99998C7.63147 5.99998 7.33301 5.7015 7.33301 5.33331C7.33301 4.96513 7.63147 4.66665 7.99967 4.66665Z" fill="#000100"/>
</g>
</g>
</g>
</g>
<defs>
<clipPath id="clip0_72_7760">
<rect width="16" height="16" fill="white"/>
</clipPath>
</defs>
</svg>
