<svg width="24" height="25" viewBox="0 0 24 25" fill="none" xmlns="http://www.w3.org/2000/svg">
<g id="Mingcute Icons" clip-path="url(#clip0_78_9147)">
<g id="&#233;&#161;&#181;&#233;&#157;&#162;-1">
<g id="System">
<g id="information_line">
<path id="&#229;&#189;&#162;&#231;&#138;&#182;" d="M12 2.33331C17.5228 2.33331 22 6.81046 22 12.3333C22 17.8561 17.5228 22.3333 12 22.3333C6.47715 22.3333 2 17.8561 2 12.3333C2 6.81046 6.47715 2.33331 12 2.33331ZM12 4.33331C7.58172 4.33331 4 7.91503 4 12.3333C4 16.7516 7.58172 20.3333 12 20.3333C16.4183 20.3333 20 16.7516 20 12.3333C20 7.91503 16.4183 4.33331 12 4.33331ZM11.99 10.3333C12.5478 10.3333 13 10.7855 13 11.3433V16.4671C13.2989 16.64 13.5 16.9632 13.5 17.3333C13.5 17.8856 13.0523 18.3333 12.5 18.3333H12.01C11.4521 18.3333 11 17.8811 11 17.3233V12.3333C10.4477 12.3333 10 11.8856 10 11.3333C10 10.781 10.4477 10.3333 11 10.3333H11.99ZM12 7.33331C12.5523 7.33331 13 7.78103 13 8.33331C13 8.88559 12.5523 9.33331 12 9.33331C11.4477 9.33331 11 8.88559 11 8.33331C11 7.78103 11.4477 7.33331 12 7.33331Z" fill="#000100"/>
</g>
</g>
</g>
</g>
<defs>
<clipPath id="clip0_78_9147">
<rect width="24" height="24" fill="white" transform="translate(0 0.333313)"/>
</clipPath>
</defs>
</svg>
