<svg width="32" height="33" viewBox="0 0 32 33" fill="none" xmlns="http://www.w3.org/2000/svg">
<g clip-path="url(#clip0_699_1101)">
<path fill-rule="evenodd" clip-rule="evenodd" d="M13.9954 12.1089C14.1081 13.0574 13.9539 14.0464 13.6113 14.9346C13.2323 15.9172 12.728 16.9808 12.6656 18.0392C12.6131 18.9306 12.8151 19.9852 13.3537 20.7071C13.9436 21.4977 14.9118 22 15.978 22H16.9863C18.72 22 20.1642 20.6712 20.3082 18.9435L20.5488 16.0554C20.5812 15.6667 20.2745 15.3334 19.8844 15.3334H16.3335C15.7794 15.3334 15.3366 14.885 15.3325 14.3384C15.3277 13.6919 15.3684 12.8939 15.0706 12.2982C14.8042 11.7653 14.5548 11.6667 14.3335 11.6667C14.1337 11.6667 13.974 11.9287 13.9954 12.1089ZM14.3335 10.3334C15.2372 10.3334 15.8629 10.9014 16.2632 11.7019C16.6114 12.3984 16.6442 13.2351 16.6612 14H19.8844C21.0545 14 21.9747 15.0001 21.8776 16.1661L21.6368 19.0542C21.4353 21.473 19.4134 23.3334 16.9863 23.3334H15.978C14.6666 23.3334 13.4478 22.7878 12.6 21.881C12.3017 21.9588 11.9889 22.0001 11.6668 22.0001C10.928 22.0001 10.3145 21.5861 9.91747 20.9278C9.53143 20.2878 9.3335 19.4044 9.3335 18.3334C9.3335 17.2625 9.53143 16.379 9.91747 15.7391C10.3145 15.0808 10.928 14.6668 11.6668 14.6668C11.8545 14.6668 12.0526 14.6998 12.2517 14.7557C12.5567 13.9563 12.7742 13.1316 12.6714 12.2662C12.5569 11.3028 13.3438 10.3334 14.3335 10.3334ZM11.7974 16.0163C11.4744 15.9494 11.2208 16.1598 11.0592 16.4278C10.842 16.7878 10.6668 17.4043 10.6668 18.3334C10.6668 19.2626 10.842 19.8791 11.0592 20.2391C11.2653 20.5808 11.4852 20.6668 11.6668 20.6668C11.7092 20.6668 11.7513 20.6657 11.793 20.6635C11.4361 19.8579 11.283 18.837 11.3346 17.9608C11.3662 17.4238 11.5757 16.6822 11.7974 16.0163Z" fill="#4B4B4B"/>
</g>
<rect x="1" y="1.66669" width="30" height="30" rx="11" stroke="#4B4B4B" stroke-width="2"/>
<defs>
<clipPath id="clip0_699_1101">
<rect width="16" height="16" fill="white" transform="translate(8 8.66669)"/>
</clipPath>
</defs>
</svg>
