<svg width="24" height="25" viewBox="0 0 24 25" fill="none" xmlns="http://www.w3.org/2000/svg">
<g id="Mingcute Icons" clip-path="url(#clip0_78_9028)">
<g id="&#233;&#161;&#181;&#233;&#157;&#162;-1">
<g id="location_line">
<path id="&#229;&#189;&#162;&#231;&#138;&#182;" fill-rule="evenodd" clip-rule="evenodd" d="M12 2.33331C16.9706 2.33331 21 6.36275 21 11.3333C21 14.4071 19.3241 16.9225 17.5584 18.7278C16.5897 19.7182 15.5597 20.5306 14.6817 21.1446L14.2564 21.435C14.1879 21.4806 14.1208 21.5248 14.0551 21.5676L13.6789 21.8073L13.3429 22.0125L12.9271 22.2543C12.3479 22.5814 11.6521 22.5814 11.0729 22.2543L10.6571 22.0125L10.1377 21.6917C10.0749 21.6518 10.0106 21.6104 9.94491 21.5676L9.53449 21.294C8.61244 20.6648 7.49106 19.8007 6.44162 18.7278C4.6759 16.9225 3 14.4071 3 11.3333C3 6.36275 7.02944 2.33331 12 2.33331ZM12 4.33331C8.13401 4.33331 5 7.46732 5 11.3333C5 13.6557 6.27202 15.6941 7.87141 17.3293C8.60687 18.0812 9.38754 18.7228 10.0929 19.2396L10.5507 19.5656C10.6987 19.6679 10.8416 19.764 10.9782 19.8536L11.3676 20.1028L11.7108 20.3122L12 20.4808L12.4545 20.2125L12.8218 19.9831C13.0167 19.8585 13.2273 19.7191 13.4493 19.5656L13.9071 19.2396C14.6125 18.7228 15.3932 18.0812 16.1286 17.3293C17.728 15.6941 19 13.6557 19 11.3333C19 7.46732 15.866 4.33331 12 4.33331ZM12 7.33331C14.2091 7.33331 16 9.12417 16 11.3333C16 13.5424 14.2091 15.3333 12 15.3333C9.79086 15.3333 8 13.5424 8 11.3333C8 9.12417 9.79086 7.33331 12 7.33331ZM12 9.33331C10.8954 9.33331 10 10.2287 10 11.3333C10 12.4379 10.8954 13.3333 12 13.3333C13.1046 13.3333 14 12.4379 14 11.3333C14 10.2287 13.1046 9.33331 12 9.33331Z" fill="#FD961B"/>
</g>
</g>
</g>
<defs>
<clipPath id="clip0_78_9028">
<rect width="24" height="24" fill="white" transform="translate(0 0.333313)"/>
</clipPath>
</defs>
</svg>
