<svg width="32" height="32" viewBox="0 0 32 32" fill="none" xmlns="http://www.w3.org/2000/svg">
<g clip-path="url(#clip0_174_12119)">
<path fill-rule="evenodd" clip-rule="evenodd" d="M16 2.66669C22.6275 2.66669 28 8.03927 28 14.6667C28 18.7651 25.7655 22.119 23.4112 24.526C22.1196 25.8465 20.7462 26.9298 19.5756 27.7484L19.0085 28.1356C18.9173 28.1964 18.8277 28.2553 18.7401 28.3124L18.2385 28.632L17.7905 28.9055L17.2361 29.228C16.4639 29.6642 15.5361 29.6642 14.7639 29.228L14.2095 28.9055L13.5169 28.4779C13.4332 28.4246 13.3475 28.3694 13.2599 28.3124L12.7127 27.9476C11.4833 27.1087 9.98808 25.9566 8.58883 24.526C6.23453 22.119 4 18.7651 4 14.6667C4 8.03927 9.37259 2.66669 16 2.66669ZM16 5.33335C10.8453 5.33335 6.66667 9.51203 6.66667 14.6667C6.66667 17.7632 8.36269 20.4811 10.4952 22.6614C11.4758 23.6639 12.5167 24.5193 13.4572 25.2084L14.0676 25.643C14.2649 25.7795 14.4555 25.9076 14.6376 26.027L15.1568 26.3593L15.6144 26.6385L16 26.8634L16.6061 26.5056L17.0958 26.1997C17.3556 26.0336 17.6364 25.8478 17.9324 25.643L18.5428 25.2084C19.4833 24.5193 20.5242 23.6639 21.5048 22.6614C23.6373 20.4811 25.3333 17.7632 25.3333 14.6667C25.3333 9.51203 21.1547 5.33335 16 5.33335ZM16 9.33335C18.9455 9.33335 21.3333 11.7212 21.3333 14.6667C21.3333 17.6122 18.9455 20 16 20C13.0545 20 10.6667 17.6122 10.6667 14.6667C10.6667 11.7212 13.0545 9.33335 16 9.33335ZM16 12C14.5272 12 13.3333 13.1939 13.3333 14.6667C13.3333 16.1395 14.5272 17.3334 16 17.3334C17.4728 17.3334 18.6667 16.1395 18.6667 14.6667C18.6667 13.1939 17.4728 12 16 12Z" fill="#4F4F4F"/>
</g>
<defs>
<clipPath id="clip0_174_12119">
<rect width="32" height="32" fill="white"/>
</clipPath>
</defs>
</svg>
