<svg width="32" height="32" viewBox="0 0 32 32" fill="none" xmlns="http://www.w3.org/2000/svg">
<g id="Mingcute Icons" clip-path="url(#clip0_416_11719)">
<g id="&#233;&#161;&#181;&#233;&#157;&#162;-1">
<g id="System">
<g id="entrance_line">
<path id="&#229;&#189;&#162;&#231;&#138;&#182;" d="M15.9997 4C16.7361 4 17.333 4.59696 17.333 5.33333C17.333 6.01711 16.8183 6.58068 16.1552 6.6577L15.9997 6.66667H9.33301C8.64923 6.66667 8.08567 7.18139 8.00864 7.84451L7.99967 8V24C7.99967 24.6838 8.5144 25.2473 9.17751 25.3244L9.33301 25.3333H15.333C16.0694 25.3333 16.6663 25.9303 16.6663 26.6667C16.6663 27.3505 16.1516 27.914 15.4885 27.991L15.333 28H9.33301C7.20277 28 5.46146 26.3348 5.3398 24.235L5.33301 24V8C5.33301 5.86976 6.99824 4.12845 9.09798 4.00679L9.33301 4H15.9997ZM23.609 11.286L27.3803 15.0572C27.901 15.5779 27.901 16.4221 27.3803 16.9428L23.609 20.714C23.0883 21.2348 22.2442 21.2348 21.7234 20.714C21.2027 20.1933 21.2027 19.3491 21.7234 18.8284L23.2186 17.3333H15.9997C15.2633 17.3333 14.6663 16.7364 14.6663 16C14.6663 15.2636 15.2633 14.6667 15.9997 14.6667H23.2186L21.7234 13.1716C21.2027 12.6509 21.2027 11.8067 21.7234 11.286C22.2442 10.7653 23.0883 10.7653 23.609 11.286Z" fill="#CDCFCC"/>
</g>
</g>
</g>
</g>
<defs>
<clipPath id="clip0_416_11719">
<rect width="32" height="32" fill="white"/>
</clipPath>
</defs>
</svg>
