<svg width="24" height="25" viewBox="0 0 24 25" fill="none" xmlns="http://www.w3.org/2000/svg">
<g id="Mingcute Icons" clip-path="url(#clip0_78_9057)">
<g id="&#233;&#161;&#181;&#233;&#157;&#162;-1">
<g id="Contact">
<g id="phone_line">
<path id="&#229;&#189;&#162;&#231;&#138;&#182;" fill-rule="evenodd" clip-rule="evenodd" d="M8.17107 16.1618C12.0169 20.0076 15.5797 20.4287 16.6254 20.4672C17.8899 20.5137 19.1797 19.4816 19.7371 18.4239C18.8475 17.3798 17.6887 16.57 16.419 15.692C15.6707 16.4403 14.7479 17.8306 13.5181 17.3332C12.8198 17.0508 11.0936 16.2559 9.58529 14.7476C8.07691 13.2392 7.28205 11.513 6.99965 10.8148C6.50183 9.58394 7.89525 8.65945 8.64411 7.91059C7.76656 6.6199 6.9701 5.43151 5.92819 4.58653C4.85677 5.14702 3.81858 6.42703 3.86569 7.70745C3.90417 8.75311 4.32527 12.316 8.17107 16.1618ZM16.5518 22.4658C15.1109 22.4128 11.0302 21.8494 6.75686 17.576C2.48347 13.3026 1.92007 9.22195 1.86705 7.781C1.78625 5.58554 3.46805 3.45235 5.41166 2.61938C5.86772 2.42392 6.42011 2.45969 6.85679 2.77822C8.46442 3.95089 9.57357 5.72864 10.5261 7.12064C10.9319 7.7137 10.8649 8.51823 10.3497 9.03345L8.99329 10.3898C9.3081 11.0851 9.95037 12.2842 10.9995 13.3333C12.0486 14.3825 13.2477 15.0247 13.943 15.3396L15.2987 13.9838C15.8144 13.4682 16.6224 13.4002 17.2168 13.812C18.6368 14.7958 20.3045 15.8893 21.5205 17.4466C21.862 17.884 21.9128 18.456 21.7091 18.9314C20.8723 20.884 18.7547 22.5469 16.5518 22.4658Z" fill="#FD961B"/>
</g>
</g>
</g>
</g>
<defs>
<clipPath id="clip0_78_9057">
<rect width="24" height="24" fill="white" transform="translate(0 0.333313)"/>
</clipPath>
</defs>
</svg>
