<svg width="32" height="33" viewBox="0 0 32 33" fill="none" xmlns="http://www.w3.org/2000/svg">
<g clip-path="url(#clip0_699_10655)">
<path fill-rule="evenodd" clip-rule="evenodd" d="M8.00016 4.5C6.5274 4.5 5.3335 5.69391 5.3335 7.16667V28.5C5.3335 29.2364 5.93046 29.8333 6.66683 29.8333C7.40322 29.8333 8.00016 29.2364 8.00016 28.5V21.8333H26.405C27.6036 21.8333 28.2962 20.4735 27.5911 19.504L22.9822 13.1667L27.5911 6.82932C28.2962 5.85989 27.6036 4.5 26.405 4.5H8.00016ZM8.00016 19.1667V7.16667H24.0484L20.5403 11.9903C20.0303 12.6916 20.0303 13.6417 20.5403 14.3431L24.0484 19.1667H8.00016Z" fill="#25A610"/>
</g>
<defs>
<clipPath id="clip0_699_10655">
<rect width="32" height="32" fill="white" transform="translate(0 0.5)"/>
</clipPath>
</defs>
</svg>
