<svg width="16" height="16" viewBox="0 0 16 16" fill="none" xmlns="http://www.w3.org/2000/svg">
<g clip-path="url(#clip0_699_10612)">
<path d="M8.00016 1.33331C11.682 1.33331 14.6668 4.31808 14.6668 7.99998C14.6668 11.6818 11.682 14.6666 8.00016 14.6666C4.31826 14.6666 1.3335 11.6818 1.3335 7.99998C1.3335 4.31808 4.31826 1.33331 8.00016 1.33331ZM8.00016 2.66665C5.05464 2.66665 2.66683 5.05446 2.66683 7.99998C2.66683 10.9455 5.05464 13.3333 8.00016 13.3333C10.9457 13.3333 13.3335 10.9455 13.3335 7.99998C13.3335 5.05446 10.9457 2.66665 8.00016 2.66665ZM8.00016 4.66665C8.36836 4.66665 8.66683 4.96512 8.66683 5.33331V7.33331H10.6668C11.035 7.33331 11.3335 7.63178 11.3335 7.99998C11.3335 8.36818 11.035 8.66665 10.6668 8.66665H8.66683V10.6666C8.66683 11.0348 8.36836 11.3333 8.00016 11.3333C7.63196 11.3333 7.3335 11.0348 7.3335 10.6666V8.66665H5.3335C4.96531 8.66665 4.66683 8.36818 4.66683 7.99998C4.66683 7.63178 4.96531 7.33331 5.3335 7.33331H7.3335V5.33331C7.3335 4.96512 7.63196 4.66665 8.00016 4.66665Z" fill="#FD961B"/>
</g>
<defs>
<clipPath id="clip0_699_10612">
<rect width="16" height="16" fill="white"/>
</clipPath>
</defs>
</svg>
