<svg width="32" height="32" viewBox="0 0 32 32" fill="none" xmlns="http://www.w3.org/2000/svg">
<g clip-path="url(#clip0_65_9911)">
<path d="M16 2.66666C23.3638 2.66666 29.3334 8.63619 29.3334 16C29.3334 23.3637 23.3638 29.3333 16 29.3333C8.63622 29.3333 2.66669 23.3637 2.66669 16C2.66669 8.63619 8.63622 2.66666 16 2.66666ZM16 5.33332C10.109 5.33332 5.33335 10.1089 5.33335 16C5.33335 21.8911 10.109 26.6667 16 26.6667C21.8911 26.6667 26.6667 21.8911 26.6667 16C26.6667 10.1089 21.8911 5.33332 16 5.33332ZM16 9.33332C16.7364 9.33332 17.3334 9.93027 17.3334 10.6667V14.6667H21.3334C22.0698 14.6667 22.6667 15.2636 22.6667 16C22.6667 16.7364 22.0698 17.3333 21.3334 17.3333H17.3334V21.3333C17.3334 22.0697 16.7364 22.6667 16 22.6667C15.2636 22.6667 14.6667 22.0697 14.6667 21.3333V17.3333H10.6667C9.93031 17.3333 9.33335 16.7364 9.33335 16C9.33335 15.2636 9.93031 14.6667 10.6667 14.6667H14.6667V10.6667C14.6667 9.93027 15.2636 9.33332 16 9.33332Z" fill="#CDCFCC"/>
</g>
<defs>
<clipPath id="clip0_65_9911">
<rect width="32" height="32" fill="white"/>
</clipPath>
</defs>
</svg>
