<svg width="16" height="16" viewBox="0 0 16 16" fill="none" xmlns="http://www.w3.org/2000/svg">
<g id="Mingcute Icons" clip-path="url(#clip0_474_2175)">
<g id="&#233;&#161;&#181;&#233;&#157;&#162;-1">
<g id="System">
<g id="add_circle_line">
<path id="&#229;&#189;&#162;&#231;&#138;&#182;&#231;&#187;&#147;&#229;&#144;&#136;" d="M8.00065 1.33331C11.6825 1.33331 14.6673 4.31808 14.6673 7.99998C14.6673 11.6818 11.6825 14.6666 8.00065 14.6666C4.31875 14.6666 1.33398 11.6818 1.33398 7.99998C1.33398 4.31808 4.31875 1.33331 8.00065 1.33331ZM8.00065 2.66665C5.05513 2.66665 2.66732 5.05446 2.66732 7.99998C2.66732 10.9455 5.05513 13.3333 8.00065 13.3333C10.9462 13.3333 13.334 10.9455 13.334 7.99998C13.334 5.05446 10.9462 2.66665 8.00065 2.66665ZM8.00065 4.66665C8.36885 4.66665 8.66732 4.96512 8.66732 5.33331V7.33331H10.6673C11.0355 7.33331 11.334 7.63178 11.334 7.99998C11.334 8.36818 11.0355 8.66665 10.6673 8.66665H8.66732V10.6666C8.66732 11.0348 8.36885 11.3333 8.00065 11.3333C7.63245 11.3333 7.33398 11.0348 7.33398 10.6666V8.66665H5.33398C4.9658 8.66665 4.66732 8.36818 4.66732 7.99998C4.66732 7.63178 4.9658 7.33331 5.33398 7.33331H7.33398V5.33331C7.33398 4.96512 7.63245 4.66665 8.00065 4.66665Z" fill="#CDCFCC"/>
</g>
</g>
</g>
</g>
<defs>
<clipPath id="clip0_474_2175">
<rect width="16" height="16" fill="white"/>
</clipPath>
</defs>
</svg>
