<svg width="32" height="32" viewBox="0 0 32 32" fill="none" xmlns="http://www.w3.org/2000/svg">
<g id="Mingcute Icons" clip-path="url(#clip0_333_9927)">
<g id="&#233;&#161;&#181;&#233;&#157;&#162;-1">
<g id="System">
<g id="settings_3_line">
<path id="&#229;&#189;&#162;&#231;&#138;&#182;" fill-rule="evenodd" clip-rule="evenodd" d="M18.7136 3.74508C19.2054 3.39104 19.8992 3.22548 20.5814 3.47511C22.0445 4.01039 23.3865 4.79408 24.5568 5.77431C25.1129 6.24014 25.3164 6.9227 25.256 7.52523C25.1554 8.52903 25.3325 9.49822 25.8148 10.3336C26.2437 11.0765 26.885 11.6633 27.6684 12.0759L27.9688 12.2224C28.5218 12.4717 29.0124 12.9905 29.1366 13.7071C29.266 14.4529 29.3333 15.2192 29.3333 16.0001C29.3333 16.7811 29.266 17.5475 29.1366 18.2933C29.0248 18.9382 28.6163 19.4229 28.1325 19.6952L27.9688 19.778C27.0486 20.1928 26.2973 20.8311 25.8148 21.6668C25.3325 22.5021 25.1554 23.4712 25.256 24.4749C25.3162 25.0775 25.1129 25.76 24.5568 26.2259C23.3865 27.206 22.0445 27.9897 20.5816 28.5249C19.8993 28.7747 19.2056 28.6091 18.7137 28.2549C17.8941 27.6651 16.9654 27.3333 16 27.3333C15.0345 27.3333 14.1058 27.6651 13.2863 28.2549C12.7944 28.6091 12.1007 28.7747 11.4183 28.5249C9.95536 27.9897 8.61332 27.206 7.44303 26.2257C6.88693 25.76 6.68355 25.0775 6.74388 24.4749C6.84439 23.4712 6.66723 22.5021 6.18495 21.6668C5.75604 20.9239 5.11483 20.3371 4.33141 19.9245L4.03109 19.778C3.47809 19.5287 2.98763 19.0099 2.86332 18.2933C2.73392 17.5475 2.66663 16.7811 2.66663 16.0001C2.66663 15.2191 2.73392 14.4528 2.86331 13.7068C2.97518 13.062 3.38365 12.5772 3.86736 12.305L4.03108 12.2222C4.95121 11.8074 5.70243 11.1692 6.18495 10.3334C6.66724 9.49808 6.8444 8.52895 6.74388 7.52522C6.68353 6.92271 6.88692 6.2402 7.44303 5.7744C8.61335 4.79412 9.95543 4.0104 11.4185 3.47511C12.1007 3.22547 12.7945 3.39104 13.2863 3.74508C14.1058 4.33498 15.0345 4.66671 16 4.66671C16.9654 4.66671 17.8941 4.33498 18.7136 3.74508ZM19.9889 6.1039C18.8348 6.86287 17.4737 7.33338 16 7.33338C14.5262 7.33338 13.1651 6.86287 12.0111 6.1039C11.0763 6.48107 10.2067 6.98723 9.42423 7.60075C9.50387 8.97867 9.23061 10.3915 8.49435 11.6668C7.75789 12.9424 6.67056 13.8856 5.437 14.5056C5.36869 14.9933 5.33329 15.4923 5.33329 16.0001C5.33329 16.508 5.36869 17.0068 5.437 17.4947C6.67056 18.1147 7.75789 19.0579 8.49435 20.3335C9.2306 21.6087 9.50387 23.0215 9.42423 24.3993C10.2066 25.0129 11.0763 25.5191 12.0109 25.8963C13.165 25.1372 14.5262 24.6667 16 24.6667C17.4737 24.6667 18.8349 25.1372 19.989 25.8963C20.9236 25.5191 21.7932 25.0129 22.5756 24.3995C22.496 23.0216 22.7692 21.6087 23.5054 20.3335C24.242 19.0577 25.3293 18.1145 26.5629 17.4945C26.6313 17.0068 26.6666 16.508 26.6666 16.0001C26.6666 15.4923 26.6313 14.9935 26.5629 14.5059C25.3293 13.8859 24.242 12.9426 23.5054 11.6669C22.7692 10.3916 22.4958 8.97867 22.5756 7.60067C21.7932 6.98719 20.9236 6.48106 19.9889 6.1039ZM16 10.6667C18.9454 10.6667 21.3333 13.0545 21.3333 16C21.3333 18.9455 18.9454 21.3333 16 21.3333C13.0544 21.3333 10.6666 18.9455 10.6666 16C10.6666 13.0545 13.0544 10.6667 16 10.6667ZM16 13.3333C14.5272 13.3333 13.3333 14.5272 13.3333 16C13.3333 17.4728 14.5272 18.6667 16 18.6667C17.4728 18.6667 18.6666 17.4728 18.6666 16C18.6666 14.5272 17.4728 13.3333 16 13.3333Z" fill="#CDCFCC"/>
</g>
</g>
</g>
</g>
<defs>
<clipPath id="clip0_333_9927">
<rect width="32" height="32" fill="white"/>
</clipPath>
</defs>
</svg>
