<svg width="32" height="33" viewBox="0 0 32 33" fill="none" xmlns="http://www.w3.org/2000/svg">
<g id="Mingcute Icons" clip-path="url(#clip0_416_3049)">
<g id="Icon">
<g id="Food">
<g id="fork_knife_line">
<path id="&#229;&#189;&#162;&#231;&#138;&#182;" fill-rule="evenodd" clip-rule="evenodd" d="M24.547 4.88267C24.975 5.48189 24.8362 6.31463 24.237 6.74264L21.4347 8.74424C20.5163 9.40028 20.1618 10.5218 20.4193 11.5289L24.8762 7.07187C25.3969 6.55117 26.2411 6.55117 26.7618 7.07187C27.2825 7.59257 27.2825 8.43679 26.7618 8.95749L22.3049 13.4145C23.3118 13.6719 24.4334 13.3174 25.0894 12.399L27.091 9.59672C27.5191 8.99749 28.3518 8.85871 28.951 9.28672C29.5502 9.71473 29.689 10.5475 29.261 11.1467L27.2594 13.9489C25.6293 16.2311 22.5749 16.7877 20.2814 15.4379L17.9669 17.7524L24.3714 24.1571C24.8921 24.6777 24.8921 25.522 24.3714 26.0427C23.8507 26.5633 23.0065 26.5633 22.4858 26.0427L16.0813 19.6381L9.79126 25.928C9.27055 26.4488 8.42634 26.4488 7.90563 25.928C7.38494 25.4073 7.38494 24.5631 7.90563 24.0424L14.1957 17.7524L12.1149 15.6717L10.2293 17.5573C9.70858 18.0781 8.86435 18.0781 8.34366 17.5573L5.40495 14.6187C3.37588 12.5896 2.87286 9.4898 4.15615 6.92321C4.40692 6.42165 4.6942 5.96893 5.30164 5.87036C5.72471 5.80171 6.15498 5.94061 6.45803 6.24368L13.0524 12.8381L13.0577 12.8433L16.0813 15.8668L18.3958 13.5523C17.0459 11.2589 17.6026 8.20441 19.8847 6.57428L22.687 4.57268C23.2862 4.14467 24.119 4.28345 24.547 4.88267ZM6.12503 9.68191C6.06331 10.7943 6.46788 11.9104 7.29056 12.7331L9.28646 14.7289L10.2293 13.7861L6.12503 9.68191Z" fill="#FD6C1B"/>
</g>
</g>
</g>
</g>
<defs>
<clipPath id="clip0_416_3049">
<rect width="32" height="32" fill="white" transform="translate(0 0.5)"/>
</clipPath>
</defs>
</svg>
