<svg width="16" height="16" viewBox="0 0 16 16" fill="none" xmlns="http://www.w3.org/2000/svg">
<g id="Mingcute Icons" clip-path="url(#clip0_558_3990)">
<g id="Icon">
<g id="Food">
<g id="fork_knife_line">
<path id="&#229;&#189;&#162;&#231;&#138;&#182;" fill-rule="evenodd" clip-rule="evenodd" d="M12.2735 2.19133C12.4875 2.49095 12.4181 2.90731 12.1185 3.12132L10.7174 4.12212C10.2582 4.45014 10.0809 5.01092 10.2096 5.51443L12.4381 3.28593C12.6984 3.02559 13.1206 3.02559 13.3809 3.28593C13.6412 3.54629 13.6412 3.96839 13.3809 4.22875L11.1524 6.45724C11.6559 6.58597 12.2167 6.40871 12.5447 5.94948L13.5455 4.54836C13.7596 4.24875 14.1759 4.17935 14.4755 4.39336C14.7751 4.60737 14.8445 5.02373 14.6305 5.32334L13.6297 6.72447C12.8146 7.86553 11.2874 8.14387 10.1407 7.46893L8.98343 8.6262L12.1857 11.8285C12.446 12.0889 12.446 12.511 12.1857 12.7713C11.9254 13.0317 11.5032 13.0317 11.2429 12.7713L8.04063 9.56907L4.89563 12.714C4.63528 12.9744 4.21317 12.9744 3.95282 12.714C3.69247 12.4537 3.69247 12.0315 3.95282 11.7712L7.09783 8.6262L6.05745 7.58587L5.11464 8.52867C4.85429 8.78907 4.43218 8.78907 4.17183 8.52867L2.70248 7.05933C1.68794 6.04481 1.43643 4.4949 2.07808 3.21161C2.20346 2.96083 2.3471 2.73447 2.65082 2.68518C2.86236 2.65085 3.07749 2.72031 3.22902 2.87184L6.52622 6.16903L6.52886 6.17166L8.04063 7.6834L9.1979 6.52613C8.52296 5.37945 8.80129 3.85221 9.94236 3.03714L11.3435 2.03634C11.6431 1.82233 12.0595 1.89173 12.2735 2.19133ZM3.06252 4.59095C3.03166 5.14717 3.23394 5.70519 3.64528 6.11653L4.64323 7.11447L5.11464 6.64307L3.06252 4.59095Z" fill="#4B4B4B"/>
</g>
</g>
</g>
</g>
<defs>
<clipPath id="clip0_558_3990">
<rect width="16" height="16" fill="white"/>
</clipPath>
</defs>
</svg>
