<svg width="32" height="33" viewBox="0 0 32 33" fill="none" xmlns="http://www.w3.org/2000/svg">
<g clip-path="url(#clip0_699_10639)">
<path fill-rule="evenodd" clip-rule="evenodd" d="M24.6582 5.56831C27.4522 7.19618 29.4169 10.5012 29.3304 14.3574C29.2225 19.1696 25.4762 23.4156 19.0924 27.2077C18.1458 27.77 17.1481 28.5 15.9998 28.5C14.8733 28.5 13.8326 27.7574 12.9073 27.2077C6.52349 23.4156 2.77717 19.1696 2.66925 14.3574C2.58277 10.5012 4.54737 7.19618 7.34137 5.56831C9.95466 4.04574 13.2374 4.03757 15.9998 6.28461C18.7624 4.03757 22.045 4.04574 24.6582 5.56831ZM23.3158 7.87243C21.4576 6.78975 19.1349 6.82826 17.1234 8.86214C16.5066 9.48581 15.493 9.48581 14.8762 8.86214C12.8648 6.82826 10.5421 6.78975 8.68382 7.87243C6.75792 8.99451 5.26973 11.3766 5.33525 14.2976C5.41036 17.6469 8.05469 21.2234 14.2692 24.915C14.813 25.2381 15.3814 25.6534 15.9998 25.8252C16.6182 25.6534 17.1866 25.2381 17.7305 24.915C23.945 21.2234 26.5893 17.6469 26.6644 14.2976C26.73 11.3766 25.2417 8.99451 23.3158 7.87243Z" fill="#A61010"/>
</g>
<defs>
<clipPath id="clip0_699_10639">
<rect width="32" height="32" fill="white" transform="translate(0 0.5)"/>
</clipPath>
</defs>
</svg>
