<svg width="24" height="24" viewBox="0 0 24 24" fill="none" xmlns="http://www.w3.org/2000/svg">
<g id="Mingcute Icons" clip-path="url(#clip0_635_5442)">
<g id="&#233;&#161;&#181;&#233;&#157;&#162;-1">
<g id="Education">
<g id="bookmark_line">
<path id="&#229;&#189;&#162;&#231;&#138;&#182;" fill-rule="evenodd" clip-rule="evenodd" d="M4 5C4 3.34315 5.34315 2 7 2H17C18.6569 2 20 3.34315 20 5V21.0284C20 22.2485 18.6209 22.9581 17.6281 22.249L12 18.2289L6.37186 22.249C5.37906 22.9581 4 22.2485 4 21.0284V5ZM7 4C6.44772 4 6 4.44772 6 5V20.0568L11.1281 16.3939C11.6497 16.0213 12.3503 16.0213 12.8719 16.3939L18 20.0568V5C18 4.44772 17.5523 4 17 4H7Z" fill="#000100"/>
</g>
</g>
</g>
</g>
<defs>
<clipPath id="clip0_635_5442">
<rect width="24" height="24" fill="white"/>
</clipPath>
</defs>
</svg>
