<svg width="22" height="29" viewBox="0 0 22 29" fill="none" xmlns="http://www.w3.org/2000/svg">
<path fill-rule="evenodd" clip-rule="evenodd" d="M17.6667 0.666656C19.797 0.666656 21.5383 2.33189 21.6599 4.43163L21.6667 4.66666V22.0241C21.6667 23.6003 19.9424 24.5347 18.6339 23.7374L18.4903 23.6416L17.6667 23.0427V26.0241C17.6667 27.6003 15.9424 28.5347 14.6339 27.7374L14.4903 27.6416L9.00004 23.6487L3.50972 27.6416C2.23499 28.5687 0.465152 27.7237 0.340361 26.1966L0.333374 26.0241V8.66666C0.333374 6.45752 2.12424 4.66666 4.33337 4.66666C4.33337 2.53642 5.99861 0.795109 8.09834 0.673447L8.33337 0.666656H17.6667ZM13.6667 7.33332H4.33337C3.6496 7.33332 3.08603 7.84805 3.00901 8.51116L3.00004 8.66666V24.7149L7.82369 21.2068C8.47103 20.736 9.33041 20.6998 10.0104 21.0982L10.1764 21.2068L15 24.7149V8.66666C15 7.98288 14.4853 7.41931 13.8222 7.34229L13.6667 7.33332ZM17.6667 3.33332H8.33337C7.597 3.33332 7.00004 3.93028 7.00004 4.66666H13.6667C15.8759 4.66666 17.6667 6.45752 17.6667 8.66666V19.7453L19 20.7149V4.66666C19 3.93028 18.4031 3.33332 17.6667 3.33332Z" fill="#CDCFCC"/>
</svg>
