<svg width="27" height="27" viewBox="0 0 27 27" fill="none" xmlns="http://www.w3.org/2000/svg">
<path fill-rule="evenodd" clip-rule="evenodd" d="M12 0.666687C5.74073 0.666687 0.666626 5.74079 0.666626 12C0.666626 18.2592 5.74073 23.3334 12 23.3334C14.6492 23.3334 17.0861 22.4244 19.0158 20.9014L23.8856 25.7711C24.4062 26.2918 25.2505 26.2918 25.7712 25.7711C26.2918 25.2504 26.2918 24.4062 25.7712 23.8855L20.9014 19.0158C22.4244 17.086 23.3333 14.6491 23.3333 12C23.3333 5.74079 18.2592 0.666687 12 0.666687ZM3.33329 12C3.33329 7.21355 7.21349 3.33335 12 3.33335C16.7865 3.33335 20.6666 7.21355 20.6666 12C20.6666 16.7866 16.7865 20.6667 12 20.6667C7.21349 20.6667 3.33329 16.7866 3.33329 12Z" fill="#CDCFCC"/>
</svg>
