<svg width="16" height="16" viewBox="0 0 16 16" fill="none" xmlns="http://www.w3.org/2000/svg">
<g id="Mingcute Icons" clip-path="url(#clip0_72_9016)">
<g id="Icon">
<g id="Shape">
<g id="star_half_fill">
<path id="&#229;&#189;&#162;&#231;&#138;&#182;" fill-rule="evenodd" clip-rule="evenodd" d="M8.72029 1.91173C8.39889 1.35985 7.60156 1.35985 7.28016 1.91173L5.41721 5.11019L1.79827 5.89443C1.17406 6.02961 0.927682 6.78787 1.35323 7.26414L3.82 10.0249L3.44706 13.7083C3.44323 13.746 3.44191 13.7808 3.44293 13.8128C3.45457 14.3937 4.06047 14.798 4.61235 14.5548L8.00023 13.0619L11.3881 14.5548C11.9726 14.8123 12.6176 14.3437 12.5532 13.7083L12.1803 10.0249L14.6471 7.26414C15.0726 6.78787 14.8262 6.0296 14.202 5.89443L10.5837 5.11089L8.72029 1.91173ZM8.00009 11.6821C8.11463 11.6821 8.22916 11.7057 8.33629 11.7529L11.1402 12.9885L10.8316 9.93994C10.808 9.70721 10.8834 9.47521 11.0392 9.30074L13.0808 7.01587L10.0862 6.36739C9.85749 6.31787 9.66016 6.17451 9.54243 5.97235L8.00023 3.3246L8.00009 11.6821Z" fill="#FDCB1B"/>
</g>
</g>
</g>
</g>
<defs>
<clipPath id="clip0_72_9016">
<rect width="16" height="16" fill="white"/>
</clipPath>
</defs>
</svg>
