<svg width="16" height="16" viewBox="0 0 16 16" fill="none" xmlns="http://www.w3.org/2000/svg">
<g id="Mingcute Icons" clip-path="url(#clip0_72_8963)">
<g id="&#233;&#161;&#181;&#233;&#157;&#162;-1">
<g id="Shape">
<g id="star_line">
<path id="&#229;&#189;&#162;&#231;&#138;&#182;" fill-rule="evenodd" clip-rule="evenodd" d="M7.27995 1.91181C7.60141 1.35992 8.39875 1.35992 8.72015 1.91181L10.5835 5.11096L14.2019 5.89451C14.8261 6.02968 15.0725 6.78794 14.6469 7.26421L12.1801 10.0249L12.5531 13.7083C12.6174 14.3437 11.9724 14.8124 11.3879 14.5549L8.00008 13.0619L4.61219 14.5549C4.02774 14.8124 3.38271 14.3437 3.44705 13.7083L3.81999 10.0249L1.35323 7.26421C0.92768 6.78794 1.17406 6.02968 1.79827 5.89451L5.41664 5.11096L7.27995 1.91181ZM8.00008 3.32467L6.4579 5.97242C6.34015 6.17459 6.14283 6.31794 5.91417 6.36746L2.91945 7.01594L4.96105 9.30088C5.11694 9.47528 5.19231 9.70728 5.16874 9.94001L4.86008 12.9885L7.66401 11.7529C7.87815 11.6586 8.12201 11.6586 8.33608 11.7529L11.1401 12.9885L10.8314 9.94001C10.8078 9.70728 10.8832 9.47528 11.0391 9.30088L13.0807 7.01594L10.0859 6.36746C9.85728 6.31794 9.66001 6.17458 9.54221 5.97242L8.00008 3.32467Z" fill="#FDCB1B"/>
</g>
</g>
</g>
</g>
<defs>
<clipPath id="clip0_72_8963">
<rect width="16" height="16" fill="white"/>
</clipPath>
</defs>
</svg>
