<svg width="28" height="24" viewBox="0 0 28 24" fill="none" xmlns="http://www.w3.org/2000/svg">
<path d="M16.6666 0C18.1394 0 19.3333 1.19391 19.3333 2.66667V6.66667H24.6666C26.1394 6.66667 27.3333 7.86057 27.3333 9.33333V21.3333C27.3333 22.8061 26.1394 24 24.6666 24H3.33329C1.86053 24 0.666626 22.8061 0.666626 21.3333V13.3333C0.666626 11.8605 1.86053 10.6667 3.33329 10.6667H8.66663V2.66667C8.66663 1.19391 9.86053 0 11.3333 0H16.6666ZM16.6666 2.66667H11.3333V21.3333H16.6666V2.66667ZM24.6666 9.33333H19.3333V21.3333H24.6666V9.33333ZM8.66663 13.3333H3.33329V21.3333H8.66663V13.3333Z" fill="#CDCFCC"/>
</svg>
