<svg width="16" height="16" viewBox="0 0 16 16" fill="none" xmlns="http://www.w3.org/2000/svg">
<g id="Mingcute Icons" clip-path="url(#clip0_490_3283)">
<g id="&#233;&#161;&#181;&#233;&#157;&#162;-1">
<g id="System">
<g id="delete_2_line">
<path id="&#229;&#189;&#162;&#231;&#138;&#182;" d="M9.51947 1.33331C10.0934 1.33331 10.6029 1.70055 10.7844 2.24501L11.1472 3.33331H13.3333C13.7015 3.33331 14 3.63179 14 3.99998C14 4.36816 13.7015 4.66663 13.3333 4.66665L13.3317 4.71415L12.7534 12.8091C12.6787 13.8558 11.8078 14.6666 10.7585 14.6666H5.24149C4.19221 14.6666 3.32133 13.8558 3.24657 12.8091L2.66836 4.71415C2.66722 4.69821 2.66665 4.68237 2.66664 4.66665C2.29846 4.66663 2 4.36816 2 3.99998C2 3.63179 2.29848 3.33331 2.66667 3.33331H4.85283L5.21559 2.24501C5.39708 1.70055 5.9066 1.33331 6.48051 1.33331H9.51947ZM11.9983 4.66665H4.0017L4.57652 12.7141C4.60144 13.063 4.89173 13.3333 5.24149 13.3333H10.7585C11.1083 13.3333 11.3985 13.063 11.4235 12.7141L11.9983 4.66665ZM6.66667 6.66665C7.00857 6.66665 7.29034 6.924 7.32885 7.25556L7.33333 7.33331V10.6666C7.33333 11.0348 7.03487 11.3333 6.66667 11.3333C6.32477 11.3333 6.04299 11.076 6.00449 10.7444L6 10.6666V7.33331C6 6.96511 6.29847 6.66665 6.66667 6.66665ZM9.33333 6.66665C9.70153 6.66665 10 6.96511 10 7.33331V10.6666C10 11.0348 9.70153 11.3333 9.33333 11.3333C8.96513 11.3333 8.66667 11.0348 8.66667 10.6666V7.33331C8.66667 6.96511 8.96513 6.66665 9.33333 6.66665ZM9.51947 2.66665H6.48051L6.25829 3.33331H9.74173L9.51947 2.66665Z" fill="#FD1B1B"/>
</g>
</g>
</g>
</g>
<defs>
<clipPath id="clip0_490_3283">
<rect width="16" height="16" fill="white"/>
</clipPath>
</defs>
</svg>
