<svg width="32" height="33" viewBox="0 0 32 33" fill="none" xmlns="http://www.w3.org/2000/svg">
<g clip-path="url(#clip0_699_10622)">
<path d="M18.6665 3.16669C20.0724 3.16669 21.2241 4.25452 21.3259 5.63434L21.3332 5.83335V8.50002H22.6665C24.0724 8.50002 25.2241 9.58786 25.3259 10.9677L25.3332 11.1667V25.8334C25.3332 27.3062 24.1393 28.5 22.6665 28.5C22.6665 29.2364 22.0696 29.8334 21.3332 29.8334C20.6494 29.8334 20.0858 29.3187 20.0088 28.6555L19.9998 28.5H11.9998C11.9998 29.2364 11.4029 29.8334 10.6665 29.8334C9.93013 29.8334 9.33317 29.2364 9.33317 28.5C7.92735 28.5 6.77562 27.4122 6.67382 26.0324L6.6665 25.8334V11.1667C6.6665 9.76087 7.75434 8.60913 9.13415 8.50733L9.33317 8.50002H10.6665V5.83335C10.6665 4.42754 11.7543 3.2758 13.1342 3.174L13.3332 3.16669H18.6665ZM22.6665 11.1667H9.33317V25.8334H22.6665V11.1667ZM13.3332 13.8334C14.0696 13.8334 14.6665 14.4303 14.6665 15.1667V21.8334C14.6665 22.5698 14.0696 23.1667 13.3332 23.1667C12.5968 23.1667 11.9998 22.5698 11.9998 21.8334V15.1667C11.9998 14.4303 12.5968 13.8334 13.3332 13.8334ZM18.6665 13.8334C19.4029 13.8334 19.9998 14.4303 19.9998 15.1667V21.8334C19.9998 22.5698 19.4029 23.1667 18.6665 23.1667C17.9301 23.1667 17.3332 22.5698 17.3332 21.8334V15.1667C17.3332 14.4303 17.9301 13.8334 18.6665 13.8334ZM18.6665 5.83335H13.3332V8.50002H18.6665V5.83335Z" fill="#1B68FD"/>
</g>
<defs>
<clipPath id="clip0_699_10622">
<rect width="32" height="32" fill="white" transform="translate(0 0.5)"/>
</clipPath>
</defs>
</svg>
