<svg width="16" height="16" viewBox="0 0 16 16" fill="none" xmlns="http://www.w3.org/2000/svg">
<g id="Mingcute Icons" clip-path="url(#clip0_333_9948)">
<g id="&#233;&#161;&#181;&#233;&#157;&#162;-1">
<g id="User">
<g id="user_3_line">
<path id="&#229;&#189;&#162;&#231;&#138;&#182;" fill-rule="evenodd" clip-rule="evenodd" d="M8 8.66667C9.597 8.66667 11.0502 9.12914 12.1185 9.781C12.6524 10.1068 13.1081 10.4909 13.4373 10.9077C13.7613 11.3178 14 11.8087 14 12.3333C14 12.8966 13.7259 13.3407 13.3315 13.6573C12.9579 13.9573 12.4655 14.1557 11.9419 14.2944C10.8902 14.5729 9.486 14.6667 8 14.6667C6.51401 14.6667 5.10977 14.5729 4.05811 14.2944C3.53455 14.1557 3.04216 13.9573 2.66844 13.6573C2.27409 13.3407 2 12.8966 2 12.3333C2 11.8087 2.2387 11.3178 2.56265 10.9077C2.89192 10.4909 3.34762 10.1068 3.88151 9.781C4.94978 9.12914 6.40302 8.66667 8 8.66667ZM8 10C6.65146 10 5.43803 10.3932 4.57601 10.9192C4.14476 11.1823 3.81942 11.4677 3.60893 11.7342C3.39311 12.0074 3.33333 12.2137 3.33333 12.3333C3.33333 12.4144 3.35771 12.5008 3.50313 12.6175C3.66917 12.7508 3.95784 12.8885 4.39943 13.0055C5.27804 13.2381 6.54047 13.3333 8 13.3333C9.45953 13.3333 10.7219 13.2381 11.6006 13.0055C12.0421 12.8885 12.3308 12.7508 12.4969 12.6175C12.6423 12.5008 12.6667 12.4144 12.6667 12.3333C12.6667 12.2137 12.6069 12.0074 12.3911 11.7342C12.1806 11.4677 11.8553 11.1823 11.424 10.9192C10.5619 10.3932 9.34853 10 8 10ZM8 1.33334C9.84093 1.33334 11.3333 2.82572 11.3333 4.66667C11.3333 6.50762 9.84093 8 8 8C6.15905 8 4.66667 6.50762 4.66667 4.66667C4.66667 2.82572 6.15905 1.33334 8 1.33334ZM8 2.66667C6.8954 2.66667 6 3.5621 6 4.66667C6 5.77124 6.8954 6.66667 8 6.66667C9.1046 6.66667 10 5.77124 10 4.66667C10 3.5621 9.1046 2.66667 8 2.66667Z" fill="#CDCFCC"/>
</g>
</g>
</g>
</g>
<defs>
<clipPath id="clip0_333_9948">
<rect width="16" height="16" fill="white"/>
</clipPath>
</defs>
</svg>
