<svg width="24" height="25" viewBox="0 0 24 25" fill="none" xmlns="http://www.w3.org/2000/svg">
<g id="Mingcute Icons" clip-path="url(#clip0_78_9072)">
<g id="Icon">
<g id="Map">
<g id="world_2_line">
<path id="&#229;&#189;&#162;&#231;&#138;&#182;" fill-rule="evenodd" clip-rule="evenodd" d="M12 2.33331C17.5228 2.33331 22 6.81046 22 12.3333C22 16.6331 19.2863 20.299 15.4781 21.7118C15.4148 21.7462 15.3468 21.7742 15.2747 21.7948L15.1802 21.817C14.1812 22.1519 13.1118 22.3333 12 22.3333C6.47715 22.3333 2 17.8561 2 12.3333C2 6.81046 6.47715 2.33331 12 2.33331ZM14.9106 4.87927L14.7344 5.76033C14.5027 6.91873 13.6128 7.83332 12.4611 8.09656L12.0597 8.1883C11.5439 8.30621 11.2092 8.8056 11.2962 9.32756L11.4709 10.3758C11.7151 11.8409 10.3334 13.0516 8.91309 12.6172L7.62249 12.2224C6.36132 11.8366 5.5 10.6724 5.5 9.3536V7.66859C4.55596 8.98172 4 10.5926 4 12.3333C4 16.7516 7.58172 20.3333 12 20.3333C12.6052 20.3333 13.1948 20.2661 13.7615 20.1387L13.1809 18.1063C13.1342 17.9429 13.0466 17.7941 12.9264 17.6739L11.6879 16.4354C11.0557 15.8033 11.1134 14.7619 11.8115 14.2035L13.3757 12.9521C13.9848 12.4648 14.8218 12.3761 15.5195 12.725L16.9898 13.4602C17.887 13.9088 18.5006 14.7761 18.625 15.7714L18.7352 16.6523C19.5357 15.4065 20 13.9241 20 12.3333C20 8.94191 17.8897 6.0434 14.9106 4.87927ZM14.6251 14.5139L13.4971 15.4162L14.3406 16.2597C14.6497 16.5687 14.8868 16.9409 15.0364 17.3496L15.1039 17.5569L15.6465 19.4558C15.9973 19.2759 16.3331 19.0708 16.6515 18.8428L16.964 18.6074L16.6405 16.0194C16.6042 15.7292 16.4431 15.4716 16.203 15.3115L16.0954 15.249L14.6251 14.5139ZM12 4.33331C10.3287 4.33331 8.77718 4.84578 7.49389 5.72216C7.49792 5.75865 7.5 5.79574 7.5 5.83331V9.3536C7.5 9.79322 7.78711 10.1813 8.20749 10.3099L9.49809 10.7046L9.32338 9.65636C9.0624 8.09046 10.0665 6.59232 11.6141 6.23859L12.0155 6.14684C12.3994 6.05909 12.696 5.75423 12.7732 5.3681L12.9686 4.39135C12.6511 4.35303 12.3278 4.33331 12 4.33331Z" fill="#FD961B"/>
</g>
</g>
</g>
</g>
<defs>
<clipPath id="clip0_78_9072">
<rect width="24" height="24" fill="white" transform="translate(0 0.333313)"/>
</clipPath>
</defs>
</svg>
