<svg width="17" height="16" viewBox="0 0 17 16" fill="none" xmlns="http://www.w3.org/2000/svg">
<g clip-path="url(#clip0_673_3307)">
<path d="M10.6917 2.0098C11.4415 1.25999 12.6385 1.23 13.4241 1.91982L13.5201 2.0098L13.9915 2.4812C14.7414 3.23101 14.7713 4.42805 14.0815 5.21364L13.9915 5.30963L6.51667 12.7845C6.41065 12.8905 6.2825 12.971 6.14198 13.0205L6.03442 13.0518L3.06448 13.7372C2.60929 13.8422 2.19875 13.4612 2.2511 13.0123L2.26418 12.9369L2.94955 9.96689C2.98327 9.82081 3.04928 9.68467 3.14219 9.5682L3.21684 9.48469L10.6917 2.0098ZM10.2203 4.36686L4.22724 10.3599L3.80298 12.1984L5.64146 11.7741L11.6345 5.78108L10.2203 4.36686ZM12.5773 2.95261C12.337 2.71229 11.9588 2.6938 11.6973 2.89715L11.6345 2.95261L11.1631 3.42405L12.5773 4.83827L13.0487 4.36682C13.289 4.1265 13.3075 3.74834 13.1042 3.48682L13.0487 3.42401L12.5773 2.95261Z" fill="#FD961B"/>
</g>
<defs>
<clipPath id="clip0_673_3307">
<rect width="16" height="16" fill="white" transform="translate(0.00146484)"/>
</clipPath>
</defs>
</svg>
